:FULLY-SPECIFIED
:FORCE-ALL-JOINTS-BE-3DOF
:DEGREES
714
root -11.6995 13.9151 -38.3035 511.851 -61.713 213.5
lfemur -65.8929 24.9737 -1.26909
ltibia 76.0425 0 0
lfoot -8.64709 -7.9664 0
ltoes -2.84492 0 0
rfemur 9.25237 -10.5595 11.6112
rtibia 40.1153 0 0
rfoot -25.209 -26.6529 0
rtoes -29.0219 0 0
lowerback 12.2497 1.43735 8.85096
upperback -1.72799 3.48627 5.8309
thorax -8.62515 1.28804 0.633904
lowerneck -3.96224 4.91014 0.869733
upperneck 3.36025 6.4611 0.913332
head 1.70861 3.25296 0.310738
lclavicle -2.32852e-015 -8.56513e-015 0
lhumerus 62.802 14.1589 106.854
lradius 11.675 0 0
lwrist -76.5558 0 0
lhand -33.9104 42.1309 0
lfingers 7.12502 0 0
lthumb -7.09309 71.9921 0
rclavicle -2.32852e-015 -8.56513e-015 0
rhumerus -75.3323 19.2526 -95.4047
rradius 114.615 0 0
rwrist -66.6585 0 0
rhand -8.38775 -40.5407 0
rfingers 7.12502 0 0
rthumb 17.5358 -69.9739 0
715
root -11.718 13.9096 -38.3053 511.849 -61.7512 213.576
lfemur -66.0161 24.9842 -1.30683
ltibia 76.1435 0 0
lfoot -8.71061 -7.96159 0
ltoes -2.88111 0 0
rfemur 9.3032 -10.5604 11.633
rtibia 40.0015 0 0
rfoot -25.1857 -26.6837 0
rtoes -29.248 0 0
lowerback 12.2268 1.43666 8.87247
upperback -1.73131 3.4857 5.83519
thorax -8.61478 1.28691 0.627392
lowerneck -3.92437 4.90705 0.903776
upperneck 3.33837 6.45654 0.886993
head 1.69679 3.25039 0.29516
lclavicle -2.02512e-015 -1.09332e-014 0
lhumerus 62.8865 14.1686 106.961
lradius 11.6491 0 0
lwrist -76.7008 0 0
lhand -33.9026 41.9464 0
lfingers 7.12502 0 0
lthumb -7.08551 71.8078 0
rclavicle -2.02512e-015 -1.09332e-014 0
rhumerus -75.335 19.2364 -95.4169
rradius 114.536 0 0
rwrist -66.4644 0 0
rhand -8.09128 -40.2427 0
rfingers 7.12502 0 0
rthumb 17.821 -69.4462 0
716
root -11.7239 13.9067 -38.3094 511.846 -61.7865 213.645
lfemur -66.1342 25.0064 -1.34575
ltibia 76.2515 0 0
lfoot -8.78083 -7.96536 0
ltoes -2.91697 0 0
rfemur 9.35701 -10.5635 11.6488
rtibia 39.8971 0 0
rfoot -25.1603 -26.7182 0
rtoes -29.453 0 0
lowerback 12.2025 1.43453 8.89272
upperback -1.73494 3.48289 5.83943
thorax -8.6041 1.2848 0.62194
lowerneck -3.8928 4.90468 0.934336
upperneck 3.32352 6.45298 0.862635
head 1.68816 3.24835 0.281137
lclavicle -1.98836e-015 -1.26928e-014 0
lhumerus 62.9428 14.1741 107.009
lradius 11.637 0 0
lwrist -76.7968 0 0
lhand -33.8885 41.7218 0
lfingers 7.12502 0 0
lthumb -7.07185 71.5836 0
rclavicle -1.98836e-015 -1.26928e-014 0
rhumerus -75.34 19.2229 -95.4319
rradius 114.459 0 0
rwrist -66.2514 0 0
rhand -7.76938 -39.9297 0
rfingers 7.12502 0 0
rthumb 18.1307 -69.1046 0
717
root -11.7299 13.9038 -38.3136 511.844 -61.8211 213.706
lfemur -66.242 25.0331 -1.38384
ltibia 76.3503 0 0
lfoot -8.84688 -7.9742 0
ltoes -2.94929 0 0
rfemur 9.40877 -10.5673 11.6645
rtibia 39.8034 0 0
rfoot -25.1325 -26.7603 0
rtoes -29.6403 0 0
lowerback 12.1762 1.4319 8.91156
upperback -1.73827 3.47885 5.84197
thorax -8.59191 1.28224 0.615693
lowerneck -3.8663 4.9019 0.961421
upperneck 3.315 6.44887 0.84144
head 1.68226 3.24609 0.268955
lclavicle -2.14945e-015 -1.40195e-014 0
lhumerus 62.9787 14.1758 107.008
lradius 11.6346 0 0
lwrist -76.8631 0 0
lhand -33.864 41.4595 0
lfingers 7.12502 0 0
lthumb -7.04821 71.322 0
rclavicle -2.14945e-015 -1.40195e-014 0
rhumerus -75.3445 19.2089 -95.449
rradius 114.383 0 0
rwrist -66.0351 0 0
rhand -7.4469 -39.6136 0
rfingers 7.12502 0 0
rthumb 18.4409 -68.7592 0
718
root -11.7358 13.9009 -38.3177 511.842 -61.8547 213.76
lfemur -66.34 25.0635 -1.42096
ltibia 76.4406 0 0
lfoot -8.90889 -7.98727 0
ltoes -2.97905 0 0
rfemur 9.45836 -10.5715 11.6798
rtibia 39.7198 0 0
rfoot -25.1027 -26.8092 0
rtoes -29.811 0 0
lowerback 12.148 1.42884 8.92897
upperback -1.74132 3.47371 5.84296
thorax -8.57837 1.27929 0.608786
lowerneck -3.84444 4.89882 0.985306
upperneck 3.31223 6.44433 0.823171
head 1.67886 3.24366 0.258473
lclavicle -2.49173e-015 -1.49489e-014 0
lhumerus 62.9961 14.1744 106.963
lradius 11.6409 0 0
lwrist -76.9028 0 0
lhand -33.8301 41.1638 0
lfingers 7.12502 0 0
lthumb -7.01555 71.0274 0
rclavicle -2.49173e-015 -1.49489e-014 0
rhumerus -75.3488 19.1945 -95.4683
rradius 114.306 0 0
rwrist -65.8159 0 0
rhand -7.12402 -39.2947 0
rfingers 7.12502 0 0
rthumb 18.7514 -68.4104 0
719
root -11.7417 13.8979 -38.3219 511.843 -61.8872 213.807
lfemur -66.4288 25.0973 -1.457
ltibia 76.523 0 0
lfoot -8.96699 -8.00375 0
ltoes -3.00724 0 0
rfemur 9.5057 -10.5762 11.6946
rtibia 39.6459 0 0
rfoot -25.0712 -26.8639 0
rtoes -29.966 0 0
lowerback 12.1183 1.42541 8.94493
upperback -1.74406 3.4676 5.84253
thorax -8.56366 1.276 0.601355
lowerneck -3.82677 4.89552 1.00627
upperneck 3.31461 6.43948 0.807594
head 1.67769 3.24113 0.249547
lclavicle -2.99851e-015 -1.55163e-014 0
lhumerus 62.9971 14.1704 106.88
lradius 11.6549 0 0
lwrist -76.9189 0 0
lhand -33.7879 40.8389 0
lfingers 7.12502 0 0
lthumb -6.9748 70.7037 0
rclavicle -2.99851e-015 -1.55163e-014 0
rhumerus -75.3527 19.1799 -95.4894
rradius 114.229 0 0
rwrist -65.5942 0 0
rhand -6.80091 -38.9732 0
rfingers 7.12502 0 0
rthumb 19.0621 -68.0583 0
720
root -11.7476 13.895 -38.326 511.844 -61.9185 213.847
lfemur -66.5089 25.1336 -1.49183
ltibia 76.5984 0 0
lfoot -9.02133 -8.02282 0
ltoes -3.03485 0 0
rfemur 9.5507 -10.5811 11.7086
rtibia 39.5812 0 0
rfoot -25.0385 -26.9234 0
rtoes -30.1062 0 0
lowerback 12.0874 1.42169 8.95943
upperback -1.7465 3.46065 5.84083
thorax -8.54795 1.27244 0.593536
lowerneck -3.81285 4.89209 1.02458
upperneck 3.32157 6.43444 0.794471
head 1.67852 3.23855 0.242036
lclavicle -3.65312e-015 -1.57574e-014 0
lhumerus 62.9834 14.1645 106.762
lradius 11.6756 0 0
lwrist -76.9145 0 0
lhand -33.7383 40.4889 0
lfingers 7.12502 0 0
lthumb -6.92692 70.3552 0
rclavicle -3.65312e-015 -1.57574e-014 0
rhumerus -75.3564 19.1651 -95.5123
rradius 114.151 0 0
rwrist -65.3703 0 0
rhand -6.47777 -38.6495 0
rfingers 7.12502 0 0
rthumb 19.3728 -67.7035 0
721
root -11.7536 13.8921 -38.3302 511.847 -61.9482 213.88
lfemur -66.5808 25.172 -1.52533
ltibia 76.6673 0 0
lfoot -9.07205 -8.04365 0
ltoes -3.06286 0 0
rfemur 9.59324 -10.5862 11.7217
rtibia 39.5253 0 0
rfoot -25.005 -26.9868 0
rtoes -30.2326 0 0
lowerback 12.0556 1.41772 8.97244
upperback -1.74864 3.45299 5.83801
thorax -8.5314 1.26866 0.585465
lowerneck -3.80224 4.88861 1.04052
upperneck 3.33253 6.42933 0.783567
head 1.68107 3.23597 0.235798
lclavicle -4.43888e-015 -1.57075e-014 0
lhumerus 62.9572 14.1573 106.614
lradius 11.7022 0 0
lwrist -76.8927 0 0
lhand -33.6823 40.1181 0
lfingers 7.12502 0 0
lthumb -6.87284 69.9861 0
rclavicle -4.43888e-015 -1.57075e-014 0
rhumerus -75.3599 19.1502 -95.5368
rradius 114.074 0 0
rwrist -65.1446 0 0
rhand -6.15476 -38.3239 0
rfingers 7.12502 0 0
rthumb 19.6834 -67.3461 0
722
root -11.7595 13.8892 -38.3343 511.852 -61.9763 213.907
lfemur -66.6452 25.2119 -1.55738
ltibia 76.7305 0 0
lfoot -9.11929 -8.06541 0
ltoes -3.09226 0 0
rfemur 9.63324 -10.5914 11.7338
rtibia 39.4777 0 0
rfoot -24.9712 -27.0532 0
rtoes -30.3461 0 0
lowerback 12.0231 1.4136 8.98394
upperback -1.75046 3.44475 5.83421
thorax -8.51419 1.26471 0.577277
lowerneck -3.79448 4.88517 1.05437
upperneck 3.3469 6.42427 0.774646
head 1.68512 3.23345 0.23069
lclavicle -5.33912e-015 -1.54022e-014 0
lhumerus 62.9202 14.1494 106.442
lradius 11.7336 0 0
lwrist -76.8564 0 0
lhand -33.6209 39.7307 0
lfingers 7.12502 0 0
lthumb -6.81352 69.6005 0
rclavicle -5.33912e-015 -1.54022e-014 0
rhumerus -75.3633 19.1353 -95.5628
rradius 113.997 0 0
rwrist -64.9174 0 0
rhand -5.83208 -37.9966 0
rfingers 7.12502 0 0
rthumb 19.9935 -66.9866 0
723
root -11.7654 13.8863 -38.3385 511.858 -62.0026 213.928
lfemur -66.7024 25.2527 -1.58787
ltibia 76.7887 0 0
lfoot -9.16318 -8.08728 0
ltoes -3.12404 0 0
rfemur 9.6706 -10.5966 11.7446
rtibia 39.4379 0 0
rfoot -24.9373 -27.1215 0
rtoes -30.4478 0 0
lowerback 11.9904 1.40938 8.99392
upperback -1.75197 3.43607 5.82957
thorax -8.49648 1.26066 0.569108
lowerneck -3.78915 4.88186 1.06639
upperneck 3.3641 6.41939 0.767471
head 1.6904 3.23105 0.226571
lclavicle -6.33715e-015 -1.48769e-014 0
lhumerus 62.8745 14.1414 106.25
lradius 11.7689 0 0
lwrist -76.8089 0 0
lhand -33.5549 39.3308 0
lfingers 7.12502 0 0
lthumb -6.74989 69.2026 0
rclavicle -6.33715e-015 -1.48769e-014 0
rhumerus -75.3666 19.1204 -95.5902
rradius 113.92 0 0
rwrist -64.6892 0 0
rhand -5.5099 -37.668 0
rfingers 7.12502 0 0
rthumb 20.3032 -66.6251 0
724
root -11.7714 13.8834 -38.3426 511.866 -62.0269 213.942
lfemur -66.7532 25.2938 -1.61665
ltibia 76.8425 0 0
lfoot -9.20386 -8.10844 0
ltoes -3.15918 0 0
rfemur 9.70522 -10.6017 11.7539
rtibia 39.4055 0 0
rfoot -24.9039 -27.1909 0
rtoes -30.5386 0 0
lowerback 11.9576 1.40512 9.00236
upperback -1.75316 3.42707 5.82424
thorax -8.47845 1.25655 0.561094
lowerneck -3.78578 4.87878 1.07687
upperneck 3.38354 6.41479 0.761808
head 1.69666 3.22882 0.223299
lclavicle -7.41632e-015 -1.41671e-014 0
lhumerus 62.822 14.134 106.042
lradius 11.8071 0 0
lwrist -76.7531 0 0
lhand -33.4856 38.9227 0
lfingers 7.12502 0 0
lthumb -6.68291 68.7965 0
rclavicle -7.41632e-015 -1.41671e-014 0
rhumerus -75.37 19.1057 -95.6187
rradius 113.843 0 0
rwrist -64.4602 0 0
rhand -5.1884 -37.3383 0
rfingers 7.12502 0 0
rthumb 20.6122 -66.2621 0
725
root -11.7773 13.8805 -38.3468 511.877 -62.0489 213.951
lfemur -66.7979 25.3346 -1.64363
ltibia 76.8927 0 0
lfoot -9.24148 -8.12806 0
ltoes -3.19868 0 0
rfemur 9.737 -10.6067 11.7616
rtibia 39.3799 0 0
rfoot -24.8714 -27.2605 0
rtoes -30.6195 0 0
lowerback 11.925 1.40091 9.00924
upperback -1.75403 3.4179 5.81837
thorax -8.46026 1.25246 0.553371
lowerneck -3.78395 4.876 1.08608
upperneck 3.40464 6.41061 0.757419
head 1.70366 3.22681 0.22073
lclavicle -8.55993e-015 -1.33083e-014 0
lhumerus 62.7646 14.1278 105.825
lradius 11.8474 0 0
lwrist -76.692 0 0
lhand -33.4137 38.5105 0
lfingers 7.12502 0 0
lthumb -6.61352 68.3865 0
rclavicle -8.55993e-015 -1.33083e-014 0
rhumerus -75.3734 19.0912 -95.6482
rradius 113.766 0 0
rwrist -64.2309 0 0
rhand -4.86776 -37.0079 0
rfingers 7.12502 0 0
rthumb 20.9202 -65.8979 0
